<svg width="64" height="64" viewBox="0 0 64 64" version="1.1" xmlns="http://www.w3.org/2000/svg">
  <title>Mathematics.NET</title>
  <defs>
    <linearGradient id="theme-gradient" gradientTransform="rotate(-60 0.5 0.5)">
      <stop stop-color="#87cefa" offset="0"/>
      <stop stop-color="#ffd700" offset="1"/>
    </linearGradient>
  </defs>
  <path
    fill="url(#theme-gradient)"
    style="mix-blend-mode:hard-light"
    d="m1.76 0.091428q0.13714-0.091428 27.657-0.091428h27.52l2.6514 6.1714q2.6971 6.3086 2.88 6.6743h-1.8286l-0.31999-0.64q-0.96001-1.8743-2.56-3.5657-2.2858-2.1943-5.0743-3.52-2.7885-1.3257-6.4457-1.9657-3.6571-0.64-6.9028-0.77714-3.2457-0.13714-8.3657-0.18286h-20.48l0.36572 0.50286q21.166 28.937 21.257 29.211 0.04574 0.09142 0 0.27429-0.13714 0.13714-12.069 13.806l-12.069 13.714q0 0.04574 9.6457 0.04574 2.3771 0 6.4457 0 4.0686 0 5.8514 0.04574 6.2171 0 10.057-0.22857 3.84-0.22858 7.6343-0.96 3.7943-0.73142 6.4457-2.24 2.6514-1.5086 4.7085-3.9771 0.96001-1.1886 1.8743-3.2914h1.8286q0 0.04574-0.31998 0.96-0.31998 0.91428-1.1428 2.9714-0.82286 2.0571-1.4172 3.84l-2.6514 7.0857-27.474 0.045732q-27.52 0-27.657-0.091425-0.27428-0.091424-0.27428-0.41143 0-0.09143 0.091429-0.27428l24.366-27.886q0-0.04572-1.5086-2.0571-1.5086-2.0114-4.8-6.5829-3.2914-4.5714-5.9429-8.1371l-12.16-16.686-0.045716-0.68571q0-0.96 0.22857-1.0971z"/>
</svg>
